<?xml version="1.0" encoding="UTF-8"?>
<svg xmlns="http://www.w3.org/2000/svg" version="1.1" viewBox="0 0 512 512" width="24px" height="24px">
  <path fill="currentColor"
     d="M 24 32 C 10.745 32 0 42.745 0 56 L 0 456 C 0 469.255 10.745 480 24 480 L 488 480 C 501.255 480 512 469.255 512 456 L 512 184.0293 C 512 165.1123 491.06923 153.63025 475.11523 163.78125 L 336 252.30859 L 336 184.0293 C 336 165.1133 315.06923 153.63025 299.11523 163.78125 L 160 252.30859 L 160 56 C 160 42.745 149.255 32 136 32 L 24 32 z M 229.58398 258.60547 C 234.98288 258.70228 240.20049 261.14294 243.61719 266.09766 C 245.87139 269.36658 256.3193 301.06321 266.83398 336.5332 C 277.34892 372.00319 286.57641 401.61621 287.33789 402.33984 C 288.09949 403.06347 289.26951 402.11008 289.93945 400.22266 C 290.60913 398.3352 298.36578 375.73011 307.17578 349.98828 C 326.24282 294.27538 327.73226 291.2548 338.16602 287.14844 C 344.99984 284.45887 347.5665 284.56108 354.73828 287.81055 C 361.99936 291.10051 365.15137 295.81939 376.58789 320.50781 C 383.93889 336.37647 389.95312 350.217 389.95312 351.26562 C 389.95312 352.31421 394.07699 356.61352 399.11719 360.81836 C 408.21221 368.40583 408.50433 368.46289 437.60547 368.46289 C 462.72025 368.46289 467.54375 369.1104 471.21875 372.96875 C 476.62603 378.646 476.71805 386.66928 471.43555 391.68945 C 468.19479 394.76857 461.13987 395.56055 436.94531 395.56055 C 409.45293 395.56055 405.23877 394.94835 393.11719 389.20898 C 375.50929 380.87203 369.176 373.27292 357.46484 346.42773 C 352.11302 334.15979 347.41474 324.12305 347.02344 324.12305 C 346.63228 324.12305 337.3587 349.8966 326.41602 381.39648 C 310.23952 427.962 305.10262 439.93367 298.9375 445.44141 C 290.84038 452.67517 288.35135 453.19904 278.99219 449.63086 C 270.62493 446.44082 265.7976 434.41198 247.16406 370.31055 C 238.20468 339.48809 230.17802 314.26953 229.32812 314.26953 C 228.47823 314.26953 222.08579 336.11425 215.12109 362.8125 C 201.39963 415.41001 197.51117 422.65625 183.01562 422.65625 C 171.47543 422.65625 162.61162 414.22336 151.02734 392.2207 C 145.21766 381.18631 140.07283 371.74974 139.59375 371.25 C 139.11465 370.75028 133.8641 374.29168 127.92578 379.12109 C 113.21266 391.08715 97.925653 395.56055 71.732422 395.56055 C 46.217366 395.56055 39.957031 393.19233 39.957031 383.53906 C 39.957031 371.86483 46.752253 368.46289 70.076172 368.46289 C 92.3039 368.46289 107.12717 363.5431 114.32617 353.77734 C 118.97309 347.47353 131.12696 341.36285 138.99414 341.375 C 150.50512 341.3921 161.31074 350.42193 170.57812 367.76562 C 176.38181 378.62732 180.03029 383.18118 181.00195 380.7793 C 181.82413 378.74708 188.41177 353.88793 195.64062 325.53516 C 202.86948 297.18236 209.92168 271.96379 211.3125 269.49414 C 215.40297 262.23221 222.64254 258.481 229.58398 258.60547 z " />
</svg>
