<?xml version="1.0" encoding="UTF-8" standalone="no"?>
<svg
	xmlns="http://www.w3.org/2000/svg" 
	xmlns:xlink="http://www.w3.org/1999/xlink" 
	xml:space="preserve"
	viewBox="0 0 24 24"
	height="24px"
	width="24px"
	id="production"
	version="1.0">
	 
	<g transform="matrix(0.08014843,0,0,0.08563074,-16.984445,-29.501493)" id="layer1">
		<path
			style="fill:currentColor;fill-opacity:1"
			d="m 326.05169,444.7784 c -14.89201,-0.30521 -15.17142,-0.35265 -18.02039,-3.05963 -6.22917,-5.91874 -6.13967,-5.27508 -6.57029,-47.25227 l -0.39435,-38.44173 5.25741,-5.75244 5.2574,-5.75244 50.31266,0 50.31265,0 4.6393,5.16002 4.6393,5.16001 0,39.70106 0,39.70107 -3.93442,4.97741 -3.93441,4.97741 -22.07702,0.66666 c -21.02669,0.63495 -30.98421,0.622 -65.48784,-0.0852 l 0,3e-5 z"
			id="path1" />
		<path
			style="fill:currentColor;fill-opacity:1"
			d="m 236.84706,552.11597 c -2.49552,-2.83506 -4.22809,-5.96007 -4.62042,-8.33376 -0.34524,-2.08879 -0.63271,-20.1778 -0.63883,-40.1978 l -0.0111,-36.4 5.33506,-5.26879 5.33507,-5.2688 50.14499,0 50.14499,0 4.62402,5.28595 4.62402,5.28595 0,39.55659 0,39.55659 -4.6393,5.16001 -4.63929,5.16002 -50.83325,0 -50.83324,0 -3.99271,-4.53596 z"
			id="path2" />
		<path
			style="fill:currentColor;fill-opacity:1"
			d="m 376.6272,551.49191 -4.6393,-5.16001 0,-39.68253 0,-39.68252 4.6393,-5.16001 4.63929,-5.16002 50.27579,0 50.27579,0 4.58042,4.89684 c 4.50205,4.81307 4.59282,5.04583 5.30602,13.60779 0.39909,4.79103 0.53892,22.47484 0.31073,39.29734 -0.44701,32.95266 -0.42592,32.82035 -6.19947,38.92014 l -3.1074,3.283 -50.72094,0 -50.72094,0 -4.63929,-5.16002 z"
			id="path3" />
		<path
			style="fill:currentColor;fill-opacity:1"
			d="m 248.04196,624.47698 c -25.23254,-0.48897 -33.85825,-0.97093 -34.83343,-1.94627 -0.76994,-0.77008 -1.29614,-3.78501 -1.29614,-7.42649 0,-7.80001 2.14694,-9.95809 9.92723,-9.97877 9.8327,-0.0261 9.73708,0.0777 9.73708,-10.57051 l 0,-9.33852 -9.13542,-0.52087 c -5.02448,-0.28649 -9.4027,-0.78816 -9.72937,-1.11483 -0.85151,-0.85151 -0.73578,-16.75631 0.12821,-17.62033 0.39719,-0.39719 67.29515,-0.72217 148.66216,-0.72217 130.40306,0 148.05355,0.17962 148.89786,1.51523 1.34016,2.11996 1.24533,15.88467 -0.11522,16.72554 -0.60723,0.37529 -4.92563,0.92076 -9.59645,1.21216 l -8.49242,0.52982 0,9.33625 c 0,10.68774 -0.15083,10.52971 10.10153,10.5837 8.13611,0.0428 8.5863,0.56605 8.5863,9.97883 0,4.41864 -0.24697,8.28085 -0.5488,8.58269 -0.84718,0.84718 -224.46905,1.50753 -262.29312,0.77454 z m 83.53984,-29.94433 0,-9.59645 -24.74874,0 -24.74874,0 0,9.59645 0,9.59645 24.74874,0 24.74874,0 0,-9.59645 z m 110.10663,0 0,-9.59645 -24.74874,0 -24.74874,0 0,9.59645 0,9.59645 24.74874,0 24.74874,0 0,-9.59645 z"
			id="path4" />
	</g>
</svg>