<?xml version="1.0" encoding="UTF-8" standalone="no"?>
<svg
   xmlns:svg="http://www.w3.org/2000/svg"
   xmlns="http://www.w3.org/2000/svg"
   viewBox="0 0 202 202" height="24px" width="24px">
  <g transform="translate(0,-95)" style="fill:currentColor">
    <path
       d="m 138.75137,295.50932 c -15.57615,-2.37579 -28.99673,-10.84149 -37.55216,-23.68791 -6.186597,-9.28949 -9.155617,-19.12789 -9.155617,-30.33889 0,-14.86859 5.479042,-28.13135 15.920547,-38.53784 7.26022,-7.23587 15.52441,-11.93703 25.2839,-14.38298 8.33723,-2.0895 18.59433,-2.08931 26.62426,5.7e-4 9.95111,2.58979 17.96898,7.16866 25.18041,14.38009 7.22898,7.22898 11.92726,15.48682 14.38059,25.27579 1.08415,4.32581 1.54807,8.30087 1.54807,13.26444 0,11.211 -2.96902,21.0494 -9.15562,30.33889 -8.60597,12.92231 -22.32889,21.55134 -37.67815,23.69219 -3.86303,0.5388 -11.85026,0.53658 -15.39623,-0.004 z m 22.58933,-33.19897 c 0.88497,-0.40321 5.97695,-6.72592 6.23059,-7.7365 0.24306,-0.96844 -0.0599,-2.6193 -0.58773,-3.20254 -0.24063,-0.26588 -3.35755,-2.62378 -6.92651,-5.23977 l -6.48901,-4.75635 v -16.34223 c 0,-17.94917 0.0579,-17.32552 -1.70458,-18.36663 -1.14544,-0.67663 -9.55652,-0.67663 -10.70196,0 -1.77547,1.0488 -1.70473,0.1986 -1.703,20.4664 0.001,11.6812 0.10724,18.82248 0.28982,19.47983 0.67622,2.43468 1.78672,3.50219 10.00972,9.62222 4.34622,3.23471 8.15622,5.99319 8.46666,6.12996 0.81939,0.36099 2.25952,0.33585 3.116,-0.0544 z M 8.6206557,250.96335 C 6.0033553,250.32796 3.6830953,248.35927 2.4767952,245.7504 l -0.6032,-1.30454 v -70.69667 -70.69667 l 0.78189,-1.59216 c 0.9122501,-1.857611 2.8028901,-3.707566 4.6718705,-4.571326 l 1.31958,-0.609851 H 92.043593 175.44026 l 1.30454,0.603201 c 2.71341,1.254637 4.71643,3.725236 5.29966,6.536806 0.2162,1.04221 0.31024,12.56188 0.31024,38.00296 v 36.50739 l -2.95174,-1.4998 c -3.63925,-1.84912 -7.78444,-3.48452 -11.94002,-4.71069 l -3.16267,-0.93319 -0.004,-5.43278 -0.004,-5.43278 h -18.06222 -18.06222 l -0.004,5.43278 -0.004,5.43278 -3.16268,0.93319 c -4.15557,1.22617 -8.30076,2.86157 -11.94001,4.71069 l -2.95175,1.4998 v -9.00462 -9.00462 H 92.043593 73.981376 v 13.82889 13.82889 l 11.359445,0.0112 11.359442,0.0112 -1.28047,1.18824 c -3.75881,3.48806 -9.059834,10.07976 -11.679542,14.52324 l -1.372698,2.32833 H 78.195335 74.02312 l -0.164649,14.04055 c -0.09056,7.72231 -0.23673,16.39006 -0.324832,19.26167 -0.143126,4.66506 0.187348,10.84639 0.643425,12.0349 0.206637,0.53849 -63.336478,0.52485 -65.5564083,-0.0141 z M 55.919156,219.46919 V 205.6403 h -18.06222 -18.06223 v 13.82889 13.82889 h 18.06223 18.06222 z m 0,-45.72 V 159.9203 h -18.06222 -18.06223 v 13.82889 13.82889 h 18.06223 18.06222 z m 54.186654,-45.72 v -13.8289 H 92.043593 73.981376 v 13.8289 13.82889 h 18.062217 18.062217 z m 54.18667,0 v -13.8289 h -18.06222 -18.06222 v 13.8289 13.82889 h 18.06222 18.06222 z" />
  </g>
</svg>