<?xml version="1.0" encoding="UTF-8" standalone="no"?>
<svg
   width="500"
   zoomAndPan="magnify"
   viewBox="0 0 375 374.999991"
   height="500"
   preserveAspectRatio="xMidYMid meet"
   version="1.0"
   id="svg24"
   sodipodi:docname="oeeview-icon.svg"
   inkscape:version="1.4.2 (f4327f4, 2025-05-13)"
   xmlns:inkscape="http://www.inkscape.org/namespaces/inkscape"
   xmlns:sodipodi="http://sodipodi.sourceforge.net/DTD/sodipodi-0.dtd"
   xmlns="http://www.w3.org/2000/svg"
   xmlns:svg="http://www.w3.org/2000/svg">
  <sodipodi:namedview
     id="namedview24"
     pagecolor="#ffffff"
     bordercolor="currentColor"
     borderopacity="0.25"
     inkscape:showpageshadow="2"
     inkscape:pageopacity="0.0"
     inkscape:pagecheckerboard="0"
     inkscape:deskcolor="#d1d1d1"
     inkscape:zoom="1.77"
     inkscape:cx="250"
     inkscape:cy="250"
     inkscape:window-width="1920"
     inkscape:window-height="1129"
     inkscape:window-x="-8"
     inkscape:window-y="-8"
     inkscape:window-maximized="1"
     inkscape:current-layer="svg24" />
  <defs
     id="defs6">
    <clipPath
       id="baf36749c8">
      <path
         d="M 0 0 L 375 0 L 375 295.5 L 0 295.5 Z M 0 0 "
         clip-rule="nonzero"
         id="path1" />
    </clipPath>
    <clipPath
       id="0663305a12">
      <path
         d="M 37 37 L 339 37 L 339 295.5 L 37 295.5 Z M 37 37 "
         clip-rule="nonzero"
         id="path2" />
    </clipPath>
    <clipPath
       id="e5b190af69">
      <path
         d="M 132 311 L 245 311 L 245 359 L 132 359 Z M 132 311 "
         clip-rule="nonzero"
         id="path3" />
    </clipPath>
    <clipPath
       id="02098ed62b">
      <path
         d="M 145.992188 288.371094 L 244.25 312.792969 L 228.875 374.660156 L 130.613281 350.238281 Z M 145.992188 288.371094 "
         clip-rule="nonzero"
         id="path4" />
    </clipPath>
    <clipPath
       id="66fd78cccc">
      <path
         d="M 145.992188 288.371094 L 244.25 312.792969 L 228.875 374.660156 L 130.613281 350.238281 Z M 145.992188 288.371094 "
         clip-rule="nonzero"
         id="path5" />
    </clipPath>
    <clipPath
       id="7d6f101dbf">
      <path
         d="M 145.992188 288.371094 L 244.25 312.792969 L 228.875 374.660156 L 130.613281 350.238281 Z M 145.992188 288.371094 "
         clip-rule="nonzero"
         id="path6" />
    </clipPath>
  </defs>
  <g
     clip-path="url(#baf36749c8)"
     id="g7"
     style="stroke-width:0.99974999;stroke-dasharray:none;fill:currentColor;fill-opacity:1">
    <path
       fill="currentColor"
       d="M 38.214844 287.109375 L 337.019531 287.109375 C 356.601562 257.65625 366.949219 223.378906 366.949219 187.832031 C 366.949219 88.886719 286.5 8.386719 187.617188 8.386719 C 88.738281 8.386719 8.285156 88.886719 8.285156 187.832031 C 8.289062 223.378906 18.625 257.65625 38.214844 287.109375 Z M 339.195312 295.300781 L 36.042969 295.300781 C 34.683594 295.300781 33.421875 294.636719 32.652344 293.519531 C 11.359375 262.296875 0.0976562 225.761719 0.0976562 187.832031 C 0.0976562 137.714844 19.601562 90.59375 55.019531 55.148438 C 90.433594 19.710938 137.523438 0.191406 187.617188 0.191406 C 237.703125 0.191406 284.792969 19.710938 320.214844 55.148438 C 355.628906 90.59375 375.136719 137.714844 375.136719 187.832031 C 375.136719 225.757812 363.878906 262.296875 342.570312 293.519531 C 341.8125 294.636719 340.550781 295.300781 339.195312 295.300781 Z M 339.195312 295.300781 "
       fill-opacity="1"
       fill-rule="evenodd"
       id="path7"
       style="stroke-width:0.99974999;stroke-dasharray:none;fill:currentColor;fill-opacity:1" />
  </g>
  <g
     clip-path="url(#0663305a12)"
     id="g8">
    <path
       fill="currentColor"
       d="M 291.246094 295.300781 C 290.199219 295.300781 289.152344 294.898438 288.351562 294.105469 C 286.75 292.507812 286.746094 289.914062 288.34375 288.308594 C 315.109375 261.441406 329.847656 225.757812 329.847656 187.828125 C 329.847656 109.351562 266.046875 45.5 187.617188 45.5 C 109.1875 45.5 45.378906 109.351562 45.378906 187.828125 C 45.382812 225.757812 60.121094 261.449219 86.894531 288.308594 C 88.488281 289.914062 88.480469 292.507812 86.875 294.105469 C 85.285156 295.703125 82.6875 295.703125 81.09375 294.097656 C 52.785156 265.683594 37.191406 227.941406 37.191406 187.828125 C 37.195312 104.835938 104.675781 37.308594 187.617188 37.308594 C 270.5625 37.308594 338.035156 104.835938 338.035156 187.828125 C 338.039062 227.941406 322.449219 265.683594 294.140625 294.097656 C 293.339844 294.898438 292.292969 295.300781 291.246094 295.300781 Z M 291.246094 295.300781 "
       fill-opacity="1"
       fill-rule="evenodd"
       id="path8" />
  </g>
  <path
     fill="currentColor"
     d="M 187.621094 178.425781 C 173.410156 178.425781 161.84375 189.996094 161.84375 204.214844 C 161.84375 218.4375 173.40625 230.007812 187.617188 230.007812 C 201.828125 230.007812 213.394531 218.4375 213.394531 204.214844 C 213.394531 189.996094 201.828125 178.425781 187.621094 178.425781 Z M 187.621094 238.203125 C 168.890625 238.203125 153.652344 222.960938 153.652344 204.214844 C 153.65625 185.484375 168.886719 170.230469 187.617188 170.230469 C 206.34375 170.230469 221.574219 185.484375 221.574219 204.214844 C 221.574219 222.960938 206.339844 238.203125 187.621094 238.203125 Z M 187.621094 238.203125 "
     fill-opacity="1"
     fill-rule="evenodd"
     id="path9" />
  <path
     fill="currentColor"
     d="M 217.480469 208.3125 C 216.757812 208.3125 216.03125 208.125 215.363281 207.722656 C 213.429688 206.554688 212.804688 204.027344 213.980469 202.101562 L 259.410156 126.992188 L 190.035156 177.636719 C 188.207031 178.96875 185.640625 178.570312 184.308594 176.742188 C 182.980469 174.914062 183.378906 172.355469 185.203125 171.023438 L 271.054688 108.34375 C 272.632812 107.191406 274.796875 107.3125 276.238281 108.632812 C 277.671875 109.949219 277.980469 112.101562 276.972656 113.773438 L 220.984375 206.339844 C 220.21875 207.613281 218.859375 208.3125 217.480469 208.3125 Z M 217.480469 208.3125 "
     fill-opacity="1"
     fill-rule="evenodd"
     id="path10" />
  <path
     fill="currentColor"
     d="M 187.621094 196.324219 C 183.265625 196.324219 179.726562 199.863281 179.726562 204.21875 C 179.730469 208.570312 183.265625 212.113281 187.617188 212.113281 C 191.96875 212.113281 195.5 208.570312 195.5 204.21875 C 195.5 199.863281 191.96875 196.324219 187.621094 196.324219 Z M 187.621094 220.304688 C 178.757812 220.304688 171.539062 213.085938 171.539062 204.21875 C 171.542969 195.351562 178.753906 188.128906 187.617188 188.128906 C 196.484375 188.128906 203.6875 195.351562 203.6875 204.21875 C 203.6875 213.085938 196.480469 220.304688 187.621094 220.304688 Z M 187.621094 220.304688 "
     fill-opacity="1"
     fill-rule="evenodd"
     id="path11" />
  <path
     fill="currentColor"
     d="M 187.621094 77.199219 C 185.359375 77.199219 183.523438 75.367188 183.523438 73.105469 L 183.523438 41.40625 C 183.523438 39.144531 185.355469 37.308594 187.617188 37.308594 C 189.878906 37.308594 191.710938 39.144531 191.710938 41.40625 L 191.710938 73.105469 C 191.710938 75.367188 189.878906 77.199219 187.621094 77.199219 Z M 187.621094 77.199219 "
     fill-opacity="1"
     fill-rule="evenodd"
     id="path12" />
  <path
     fill="currentColor"
     d="M 244.945312 92.570312 C 244.246094 92.570312 243.546875 92.394531 242.898438 92.019531 C 240.945312 90.890625 240.269531 88.382812 241.394531 86.425781 L 257.238281 58.980469 C 258.363281 57.015625 260.867188 56.34375 262.832031 57.476562 C 264.785156 58.613281 265.457031 61.113281 264.324219 63.074219 L 248.496094 90.523438 C 247.734375 91.839844 246.351562 92.574219 244.945312 92.570312 Z M 244.945312 92.570312 "
     fill-opacity="1"
     fill-rule="evenodd"
     id="path13" />
  <path
     fill="currentColor"
     d="M 286.917969 134.5625 C 285.503906 134.5625 284.121094 133.828125 283.371094 132.515625 C 282.238281 130.550781 282.910156 128.050781 284.863281 126.917969 L 312.296875 111.066406 C 314.257812 109.941406 316.753906 110.613281 317.886719 112.570312 C 319.015625 114.53125 318.347656 117.035156 316.386719 118.167969 L 288.957031 134.015625 C 288.316406 134.382812 287.609375 134.5625 286.917969 134.5625 Z M 286.917969 134.5625 "
     fill-opacity="1"
     fill-rule="evenodd"
     id="path14" />
  <path
     fill="currentColor"
     d="M 333.941406 191.925781 L 302.269531 191.925781 C 300.011719 191.925781 298.175781 190.09375 298.175781 187.832031 C 298.175781 185.570312 300.007812 183.734375 302.269531 183.734375 L 333.941406 183.734375 C 336.210938 183.734375 338.035156 185.570312 338.035156 187.832031 C 338.035156 190.09375 336.207031 191.925781 333.941406 191.925781 Z M 333.941406 191.925781 "
     fill-opacity="1"
     fill-rule="evenodd"
     id="path15" />
  <path
     fill="currentColor"
     d="M 314.339844 265.136719 C 313.640625 265.136719 312.941406 264.960938 312.292969 264.59375 L 284.863281 248.742188 C 282.914062 247.609375 282.234375 245.109375 283.371094 243.144531 C 284.496094 241.191406 286.996094 240.515625 288.957031 241.652344 L 316.390625 257.492188 C 318.351562 258.625 319.011719 261.128906 317.886719 263.089844 C 317.128906 264.402344 315.753906 265.140625 314.339844 265.136719 Z M 314.339844 265.136719 "
     fill-opacity="1"
     fill-rule="evenodd"
     id="path16" />
  <path
     fill="currentColor"
     d="M 130.292969 92.570312 C 128.875 92.570312 127.503906 91.839844 126.742188 90.523438 L 110.90625 63.074219 C 109.78125 61.113281 110.445312 58.613281 112.40625 57.476562 C 114.367188 56.34375 116.867188 57.015625 118 58.980469 L 133.832031 86.425781 C 134.96875 88.382812 134.292969 90.890625 132.339844 92.015625 C 131.691406 92.394531 130.980469 92.574219 130.292969 92.570312 Z M 130.292969 92.570312 "
     fill-opacity="1"
     fill-rule="evenodd"
     id="path17" />
  <path
     fill="currentColor"
     d="M 88.320312 134.5625 C 87.621094 134.5625 86.917969 134.382812 86.269531 134.019531 L 58.851562 118.167969 C 56.890625 117.03125 56.210938 114.53125 57.347656 112.570312 C 58.480469 110.613281 60.980469 109.941406 62.941406 111.066406 L 90.367188 126.917969 C 92.328125 128.050781 93 130.550781 91.867188 132.515625 C 91.105469 133.828125 89.734375 134.5625 88.320312 134.5625 Z M 88.320312 134.5625 "
     fill-opacity="1"
     fill-rule="evenodd"
     id="path18" />
  <path
     fill="currentColor"
     d="M 72.957031 191.925781 L 41.285156 191.925781 C 39.027344 191.925781 37.191406 190.09375 37.191406 187.832031 C 37.195312 185.570312 39.027344 183.734375 41.285156 183.734375 L 72.957031 183.734375 C 75.226562 183.734375 77.050781 185.570312 77.050781 187.832031 C 77.050781 190.09375 75.226562 191.925781 72.957031 191.925781 Z M 72.957031 191.925781 "
     fill-opacity="1"
     fill-rule="evenodd"
     id="path19" />
  <path
     fill="currentColor"
     d="M 60.898438 265.136719 C 59.480469 265.136719 58.105469 264.40625 57.347656 263.089844 C 56.214844 261.128906 56.886719 258.625 58.847656 257.492188 L 86.269531 241.652344 C 88.234375 240.515625 90.730469 241.191406 91.867188 243.144531 C 93.003906 245.105469 92.328125 247.609375 90.363281 248.742188 L 62.945312 264.59375 C 62.296875 264.960938 61.585938 265.140625 60.898438 265.136719 Z M 60.898438 265.136719 "
     fill-opacity="1"
     fill-rule="evenodd"
     id="path20" />
  <g
     clip-path="url(#e5b190af69)"
     id="g24">
    <g
       clip-path="url(#02098ed62b)"
       id="g23">
      <g
         clip-path="url(#66fd78cccc)"
         id="g22">
        <g
           clip-path="url(#7d6f101dbf)"
           id="g21">
          <path
             fill="#010101"
             d="M 244.226562 312.785156 L 212.324219 311.0625 L 218.191406 320.785156 L 184.75 340.855469 L 171.136719 318.308594 L 132.867188 341.28125 L 139.625 352.476562 L 166.683594 336.234375 L 180.292969 358.78125 L 224.949219 331.980469 L 230.816406 341.703125 Z M 244.226562 312.785156 "
             fill-opacity="1"
             fill-rule="nonzero"
             id="path21" />
        </g>
      </g>
    </g>
  </g>
</svg>
