<?xml version="1.0" encoding="UTF-8" standalone="no"?>
<svg
	xmlns="http://www.w3.org/2000/svg" 
	xmlns:xlink="http://www.w3.org/1999/xlink" 
	xml:space="preserve"
	viewBox="0 0 24 24"
	height="24px"
	width="24px"
	id="machines"
	version="1.0">
	
	<g transform="matrix(0.08977042,0,0,0.08034906,-20.645454,-26.617033)" id="layer1">
		<path
			style="fill:currentColor;fill-opacity:1"
			d="m 347.60923,414.51308 c -10.07411,-1.29904 -13.98221,-2.65377 -17.93532,-6.21725 -4.92952,-4.44365 -8.81398,-12.30514 -8.81398,-17.83801 0,-5.51412 3.87964,-13.39003 8.76524,-17.79398 6.84941,-6.17414 9.36552,-6.44968 58.89524,-6.44968 38.745,0 44.60619,0.2059 49.56095,1.74102 7.20648,2.23277 11.92006,5.4378 14.52912,9.87917 2.99572,5.09956 2.99572,20.14738 0,25.24694 -4.11483,7.0046 -10.6627,9.74746 -26.71442,11.19049 -9.3019,0.83622 -72.17038,1.03 -78.28683,0.2413 z m 3.9725,-13.39446 c 4.05253,-2.67144 5.54593,-5.74371 5.58816,-11.49612 0.0299,-4.06834 -0.45326,-5.36499 -2.91696,-7.82868 -3.93383,-3.93383 -10.67586,-4.16646 -14.92112,-0.51484 -2.5633,2.20486 -2.83425,3.06386 -2.83425,8.98532 0,5.12544 0.43877,7.0351 2.0203,8.79299 3.88576,4.31905 8.52782,5.05152 13.06387,2.06133 z"
			id="path1" />
		<path
			style="fill:currentColor;fill-opacity:1"
			d="m 456.70571,367.69068 c -2.22234,-1.13159 -5.94362,-3.745 -8.26951,-5.80758 l -4.22891,-3.75016 5.07554,-3.46983 c 2.79155,-1.90841 7.56268,-4.30948 10.60251,-5.33572 7.01376,-2.36784 19.85376,-4.0499 25.10464,-3.28877 11.3543,1.64586 12.99677,2.73679 11.57647,7.6891 -1.949,6.79577 -7.04967,9.84927 -18.60768,11.1394 -4.46659,0.49857 -9.83971,1.80111 -11.94026,2.89453 -4.68139,2.43686 -4.38316,2.43913 -9.3128,-0.071 z"
			id="path2" />
		<path
			style="fill:currentColor;fill-opacity:1"
			d="m 464.78693,432.49195 c -3.88909,-0.96733 -8.2624,-2.41121 -9.71847,-3.20863 -4.32707,-2.36973 -10.29561,-8.10895 -9.3459,-8.98682 2.10779,-1.94834 14.73768,-10.14071 15.63359,-10.14071 0.54296,0 2.21886,0.90387 3.72422,2.00859 2.94789,2.16335 11.16234,4.05233 17.62198,4.05233 8.02465,0 12.85628,4.21537 14.35252,12.5219 0.50441,2.80024 0.32346,4.17999 -0.62722,4.78275 -2.43986,1.54695 -24.1182,0.84166 -31.64072,-1.02941 z"
			id="path3" />
		<path
			style="fill:currentColor;fill-opacity:1"
			d="m 306.05784,466.50362 c -1.59242,-1.21627 -6.80096,-5.68403 -11.57452,-9.92836 -13.51825,-12.0195 -23.32219,-18.06332 -29.3819,-18.11301 -1.48817,-0.0122 -3.41617,-0.73258 -4.28444,-1.60086 -1.43147,-1.43147 -1.20879,-2.25568 2.38798,-8.83883 3.674,-6.7245 5.76348,-12.61892 15.64368,-44.13073 11.81067,-37.66888 28.42796,-52.47781 59.04888,-52.62291 10.79992,-0.0512 18.56311,1.27114 30.64819,5.22036 14.93933,4.88195 31.08638,14.581 31.08638,18.67267 0,4.89778 -17.87887,2.46188 -38.3858,-5.22984 -6.95857,-2.61002 -8.72894,-2.84448 -21.71828,-2.87626 -12.97181,-0.0317 -14.5601,0.16915 -19.19289,2.42738 -8.00522,3.90211 -15.90621,12.71536 -21.11672,23.55487 -4.32785,9.00331 -9.18553,23.9927 -8.47054,26.13767 0.19058,0.57173 3.82531,-2.06695 8.07718,-5.86373 4.25188,-3.79679 9.12641,-7.43008 10.83231,-8.07399 l 3.10162,-1.17073 0,6.82198 c 0,8.46778 3.88813,17.00638 10.53316,23.13156 6.52644,6.01586 11.8114,8.34533 20.40852,8.99553 8.40437,0.63562 8.9061,1.3229 4.75051,6.50734 -3.82597,4.77323 -33.64603,34.93065 -36.83748,37.25425 -2.63838,1.92092 -2.68462,1.91864 -5.55584,-0.27436 z"
			id="path4" />
		<path
			style="fill:currentColor;fill-opacity:1"
			d="m 346.48922,590.54915 c -8.50736,-2.66251 -17.34069,-9.81127 -57.97391,-46.91787 -29.20114,-26.66674 -52.65343,-50.09378 -56.03999,-55.97966 -2.40558,-4.18094 -2.7256,-5.67735 -2.37632,-11.11168 0.93083,-14.48227 12.86743,-27.78843 26.61912,-29.67331 3.94609,-0.54087 5.57764,-0.12393 11.87252,3.034 4.01377,2.01358 11.68661,7.19936 17.05075,11.52398 14.53251,11.71621 61.99032,54.37142 77.82521,69.94949 16.17381,15.9115 18.35453,19.56687 18.40187,30.84566 0.0405,9.64767 -3.41063,16.81742 -10.86214,22.56622 -8.83037,6.81259 -15.87373,8.46825 -24.51711,5.76317 z M 265.73766,484.95332 c 2.97608,-2.79588 3.88906,-7.28653 2.51719,-12.38126 -0.83956,-3.11789 -1.81784,-4.29197 -4.51534,-5.41906 -7.54845,-3.15394 -13.55538,-1.15989 -15.65306,5.19615 -1.69645,5.14026 -0.49509,9.9223 3.2936,13.11027 2.69798,2.2702 3.89529,2.61629 7.60469,2.19819 2.59247,-0.29221 5.36889,-1.40406 6.75292,-2.70429 z"
			id="path5" />
		<path
			style="fill:currentColor;fill-opacity:1"
			d="m 330.39691,628.9015 c -10.74387,-1.12523 -14.82832,-2.0475 -22.15928,-5.00358 -17.82851,-7.18903 -30.84878,-17.10062 -35.2049,-26.79948 -2.67909,-5.96497 -2.67248,-13.37133 0.0173,-19.36083 2.28477,-5.08768 14.85193,-19.08939 17.13356,-19.08939 0.78296,0 6.75094,4.83453 13.26217,10.74341 15.29227,13.87757 28.05488,23.74569 35.333,27.31964 4.98068,2.44578 7.01298,2.84813 14.38632,2.84813 10.45346,0 17.32935,-2.78687 25.32238,-10.26341 8.58072,-8.02626 12.03864,-17.32816 12.06873,-32.46526 0.0217,-10.92516 0.11995,-11.00374 9.68909,-7.75118 14.19784,4.82585 26.3436,11.36126 33.42454,17.98513 8.80302,8.2348 10.7893,12.29983 10.17489,20.82346 -1.45777,20.22323 -19.50931,33.62004 -53.30398,39.55913 -15.15352,2.66308 -42.32775,3.32013 -60.14381,1.45423 z"
			id="path6" />
	</g>
</svg>