<?xml version="1.0" encoding="UTF-8" standalone="no"?>
<svg
   xmlns:svg="http://www.w3.org/2000/svg"
   xmlns="http://www.w3.org/2000/svg"
	 xml:space="preserve"
   viewBox="0 0 512 512"
   height="24px"
   width="24px"
   id="mpmilestones">
  <path
     style="fill:currentColor;fill-opacity:1"
     d="M 63.355469 0.00390625 C 32.723799 0.3488172 8 25.28675 8 56 C 8 75.026 17.497 91.825313 32 101.94531 L 32 488 C 32 501.255 42.745 512 56 512 L 72 512 C 85.255 512 96 501.255 96 488 L 96 393.59961 C 124.311 381.53561 159.58255 371.47852 210.43555 371.47852 C 264.02355 371.47852 308.27934 406.26172 375.65234 406.26172 C 423.82134 406.26172 462.31825 389.96634 498.15625 365.40234 C 506.83925 359.45134 512 349.57092 512 339.04492 L 512 95.945312 C 512 72.552312 487.73162 57.075687 466.51562 66.929688 C 432.17762 82.877688 390.06045 98.783203 349.56445 98.783203 C 295.97745 98.783203 251.72066 64 184.34766 64 C 159.39266 64 137.03873 68.384672 116.30273 76.013672 A 55.947 55.947 0 0 0 119.88867 52.451172 C 118.11667 24.015172 94.805891 1.2068281 66.337891 0.048828125 C 65.338109 0.008140625 64.343587 -0.0072199097 63.355469 0.00390625 z M 378.23438 145.36914 C 381.33932 145.36914 384.44367 146.55303 386.8125 148.92188 L 403.9707 166.08008 C 408.70837 170.81777 408.70837 178.49819 403.9707 183.23633 L 264.45117 322.75781 C 259.71301 327.49549 252.03065 327.49401 247.29297 322.75586 L 168.43555 243.89844 C 163.69786 239.16075 163.69786 231.47839 168.43555 226.74023 L 185.5918 209.58203 C 190.32949 204.84387 198.01232 204.84387 202.75 209.58203 L 255.87305 262.70508 L 369.65625 148.92188 C 372.02509 146.55303 375.12943 145.36914 378.23438 145.36914 z " />
</svg>
