<?xml version="1.0" encoding="UTF-8" standalone="no"?>
<svg xmlns="http://www.w3.org/2000/svg" viewBox="0 0 384 512">
  <path fill="currentColor"
     d="M369.9 97.9L286 14C277 5 264.8-.1 252.1-.1H48C21.5 0 0 21.5 0 48v416c0 26.5 21.5 48 48 48h288c26.5 0 48-21.5 48-48V131.9c0-12.7-5.1-25-14.1-34zM332.1 128H256V51.9l76.1 76.1zM48 464V48h160v104c0 13.3 10.7 24 24 24h104v288H48z" />
  <path fill="currentColor" 
     d="M 293.08714,202.68233 V 437.31767 H 253.23796 V 202.68233 Z m -59.77375,87.98826 V 437.31767 H 193.46421 V 290.67059 Z M 173.53963,232.01175 V 437.31767 H 133.69046 V 232.01175 Z M 113.76588,349.3294 v 87.98827 H 73.916733 V 349.3294 Z" />
</svg>
