<?xml version="1.0" encoding="UTF-8" standalone="no"?>
<svg
   xmlns="http://www.w3.org/2000/svg"
   viewBox="0 0 340 340">
  <path
     fill="currentColor" 
     d="m 164.55163,335.28518 -3.86462,-3.39317 -0.0636,-99.8895 c -0.035,-54.93924 -0.45054,-102.24639 -0.92348,-105.127 -0.76799,-4.67769 -1.70293,-6.0458 -8.74721,-12.8 -4.33802,-4.15939 -13.61491,-12.60251 -20.6153,-18.762513 -9.73871,-8.56958 -12.94677,-12.05019 -13.65945,-14.81997 -1.44248,-5.60613 -0.53475,-66.296948 1.03245,-69.029121 1.91334,-3.3356377 6.26593,-3.6175777 55.84802,-3.6175777 h 44.57371 l 2.21075,2.8105157 c 2.13452,2.713567 2.21077,4.017284 2.21077,37.794766 v 34.984247 l -10.40529,9.40524 c -5.72291,5.17288 -14.72291,13.115733 -20,17.650793 -5.27708,4.53505 -10.31471,9.33505 -11.19471,10.66667 -1.38859,2.10121 -1.64604,16.17363 -1.9485,106.50623 l -0.3485,104.08511 -2.31816,2.80374 c -3.71736,4.496 -7.24971,4.71524 -11.78688,0.73154 z M 7.0787767,315.57091 c -2.306561,-2.45522 -2.519401,-3.61848 -2.585935,-14.13333 -0.08544,-13.50323 0.88646,-19.03978 3.596954,-20.49039 1.203167,-0.64392 27.9196783,-1.34376 68.2207683,-1.78704 l 66.243106,-0.72863 v 19.90741 19.90741 H 76.072944 9.5922097 Z M 196.95367,298.36029 v -19.88605 l 65.35385,0.53136 c 58.89648,0.47887 65.70202,0.71141 68.87759,2.35357 l 3.52373,1.82219 -0.34424,15.48742 c -0.29282,13.17343 -0.61888,15.68788 -2.18233,16.82916 -2.5017,1.8262 -32.54368,2.7484 -89.53346,2.7484 H 196.95367 Z M 6.3115957,241.7584 c -1.557987,-2.37904 -1.881497,-5.17467 -1.83587,-15.86478 0.076,-17.80565 0.242837,-18.03149 13.9934913,-18.94201 5.766451,-0.38183 36.044457,-0.69672 67.284457,-0.69976 l 56.799996,-0.006 v 19.2 19.2 H 75.378264 8.2028527 Z M 196.95367,225.38616 v -19.26018 l 39.2,0.32685 c 36.81479,0.30695 39.3871,0.45353 42.27479,2.40886 l 3.07477,2.08202 -0.53641,14.91613 c -0.49725,13.82675 -0.71097,15.05745 -2.92629,16.85131 -2.21177,1.79097 -5.32211,1.93518 -41.73835,1.93518 H 196.95367 Z M 6.4096827,169.17967 c -1.679833,-2.47695 -1.980726,-4.94526 -1.933957,-15.86478 0.06293,-14.69371 1.19161,-17.77129 6.9390413,-18.92077 1.873065,-0.37461 32.145574,-0.68112 67.272237,-0.68112 h 63.866666 v 19.2 19.2 H 75.476354 8.3990267 Z M 196.95367,152.913 v -19.2 h 9.98949 c 8.49095,0 10.41109,0.33164 12.8,2.21075 2.79313,2.19708 2.81042,2.30099 2.79418,16.8 -0.009,8.02409 -0.36898,15.11739 -0.8,15.7629 -1.75253,2.62466 -5.92726,3.62635 -15.11354,3.62635 h -9.67013 z" />
</svg>
