<?xml version="1.0" encoding="UTF-8" standalone="no"?>
<svg
   xmlns="http://www.w3.org/2000/svg" viewBox="0 0 448 512">
  <path
     style="stroke-width:0.97652096"
     d="m 181.27616,470.70127 45.17249,35.23893 38.53904,-34.36997 -21.91957,-132.16901 32,-56.36032 h -96 l 32,56.36032"
     class="highlightcolor" fill="currentColor" />
  <path fill="currentColor" 
     d="m 225.97307,258.6207 c 70.7,0 128,-57.3 128,-128 0,-70.699997 -57.3,-127.9999966 -128,-127.9999966 -70.7,0 -127.999994,57.2999996 -127.999994,127.9999966 0,70.7 57.299994,128 127.999994,128 z" />
  <path fill="currentColor" 
     d="M 171.30531,511.37049 129.64155,269.71127 C 58.341537,273.39144 1.4415409,336.49552 1.4415409,414.53674 v 45.02795 c 0,28.68367 21.5000001,51.95533 47.9999961,51.95533 H 121.0984" />
  <path fill="currentColor" 
     d="m 278.31116,511.30805 41.66376,-241.65922 c 71.30001,3.68017 128.20001,66.78425 128.20001,144.82547 v 45.02795 c 0,28.68367 -21.5,51.95533 -48,51.95533 h -71.65686" />
</svg>
