<?xml version="1.0" encoding="UTF-8" standalone="no"?>
<svg xmlns="http://www.w3.org/2000/svg" viewBox="0 0 448 512">
  <path class="highlightcolor" fill="currentColor" 
     d="m 176.07221,145.92832 c -22.87325,-0.51837 -77.184352,-2.93759 -90.850256,-4.04541 -12.493925,-1.01249 -16.119069,-3.48519 -16.119069,-10.99292 0,-6.97192 4.27145,-10.5705 12.547081,-10.5705 h 6.160716 l 1.770441,-12.88285 C 92.075544,89.284608 100.18819,71.65095 111.17688,60.496156 l 3.61272,-3.667399 15.59115,16.55024 c 8.57518,9.102549 15.85324,16.550081 16.17346,16.550081 0.53924,0 -9.74813,-20.831328 -16.88554,-34.191777 -4.06943,-7.617605 -3.97375,-8.206315 2.09913,-12.924825 10.77212,-8.36986 29.28416,-17.12258 43.70025,-20.66234 l 8.17704,-2.0077 0.85485,6.15466 c 0.46991,3.38517 3.25649,25.776307 6.19212,49.758174 l 5.33725,43.60353 0.79779,-51.531403 c 0.87035,-56.192631 0.89794,-56.355111 10.45807,-62.5788805 10.8377,-7.05528 29.55423,-3.77773 35.74106,6.2589295 3.15292,5.11474 3.30152,7.57063 3.46514,57.258326 0.10901,31.974168 0.69033,49.884288 1.52217,46.629168 0.74278,-2.90697 3.55386,-23.717682 6.24616,-46.246156 2.6923,-22.528618 5.26342,-42.851428 5.71361,-45.162118 l 0.81875,-4.20106 11.35475,3.19616 c 6.24517,1.75791 14.6639,4.78627 18.70831,6.72971 9.32523,4.48072 25.74301,14.83309 26.64231,16.79941 0.37641,0.82303 -4.00344,10.651435 -9.73318,21.840642 -5.72977,11.189205 -10.19821,20.52562 -9.92995,20.74767 0.26841,0.22129 7.19956,-6.70304 15.40283,-15.389061 8.20329,-8.685879 15.45661,-15.792687 16.11851,-15.792687 2.25738,0 9.70413,9.217124 15.23707,18.859406 6.30861,10.993982 10.22566,24.594664 10.26598,35.645044 l 0.0289,7.59759 h 7.18452 c 9.365,0 13.57072,3.27589 13.57072,10.5705 0,7.96167 -3.46885,10.02985 -18.53368,11.04991 -42.65074,2.88787 -137.47814,4.97696 -181.03647,3.98842 z" />
  <path fill="currentColor" 
     d="m 224,278 c 70.7,0 128,-47.90951 128,-118.60951 -100.53408,6.83689 -156.40707,6.05026 -256,0 C 96,230.09049 153.3,278 224,278 Z m 89.6,10 h -16.7 c -22.2,10.2 -46.9,16 -72.9,16 -26,0 -50.6,-5.8 -72.9,-16 H 134.4 C 60.2,288 0,348.2 0,422.4 V 464 c 0,26.5 21.5,48 48,48 h 352 c 26.5,0 48,-21.5 48,-48 V 422.4 C 448,348.2 387.8,288 313.6,288 Z" />
</svg>
