<?xml version="1.0" encoding="UTF-8" standalone="no"?>
<svg xmlns="http://www.w3.org/2000/svg" viewBox="0 0 576 512">
  <path fill="currentColor"
     d="M528 0H48C21.5 0 0 21.5 0 48v320c0 26.5 21.5 48 48 48h192l-16 48h-72c-13.3 0-24 10.7-24 24s10.7 24 24 24h272c13.3 0 24-10.7 24-24s-10.7-24-24-24h-72l-16-48h192c26.5 0 48-21.5 48-48V48c0-26.5-21.5-48-48-48zm-16 352H64V64h448v288z" />
  <path class="highlightcolor" fill="currentColor" 
     d="M 395.55135,187.79482 236.17657,93.57354 c -12.9492,-7.651801 -32.7805,-0.226385 -32.7805,18.69937 v 188.39728 c 0,16.97885 18.42771,27.21144 32.7805,18.69937 l 159.37478,-94.176 c 14.21696,-8.37623 14.26223,-29.02251 0,-37.39874 z" />
</svg>
