<svg xmlns="http://www.w3.org/2000/svg" viewBox="0 0 512 512">
  <path fill="currentColor" d="M168 80c0-8.8 7.2-16 16-16H328c8.8 0 16 7.2 16 16v40h40c17.7 0 32 14.3 32 32V432c0 17.7-14.3 32-32 32H128c-17.7 0-32-14.3-32-32V152c0-17.7 14.3-32 32-32h40V80zm48 24v16h80V104H216zM144 168V416H368V168H144zm62.1 98.1l28.2-28.2c6.2-6.2 16.4-6.2 22.6 0l13.7 13.7 35.3-35.3c6.2-6.2 16.4-6.2 22.6 0l28.2 28.2c6.2 6.2 6.2 16.4 0 22.6L282 341.7c-6.2 6.2-16.4 6.2-22.6 0l-53.3-53.3c-6.2-6.2-6.2-16.4 0-22.6z"/>
</svg>
