<svg xmlns="http://www.w3.org/2000/svg" viewBox="0 0 512 512">
  <path fill="currentColor" d="M410.3 231l11.3-11.3-33.9-33.9-62.1-62.1L291.3 89.8l-11.3 11.3-22.6 22.6L58.6 322.9c-10.4 10.4-18 23.3-22.2 37.4L1 480.7c-2.5 8.4-.2 17.5 6.1 23.7s15.3 8.5 23.7 6.1l120.3-35.4c14.1-4.2 27-11.8 37.4-22.2L387.7 253.7l22.6-22.6zM160 399.4l-9.1 22.7c-4 3.1-8.5 5.4-13.3 6.9L59.4 452l23-78.1c1.4-4.9 3.8-9.4 6.9-13.3l22.7-9.1 1.4 1.4 44.8 44.8 1.4 1.4zM480 80L400 0 352 48l80 80 48-48zM336 64L256 144l80 80 80-80-80-80z"/>
</svg>
