<?xml version="1.0" standalone="no"?>
<!DOCTYPE svg PUBLIC "-//W3C//DTD SVG 20010904//EN"
 "http://www.w3.org/TR/2001/REC-SVG-20010904/DTD/svg10.dtd">
<svg version="1.0" xmlns="http://www.w3.org/2000/svg"
 width="512.000000pt" height="512.000000pt" viewBox="0 0 512.000000 512.000000"
 preserveAspectRatio="xMidYMid meet">

<g transform="translate(0.000000,512.000000) scale(0.100000,-0.100000)"
fill="currentColor">
<path d="M405 4791 c-90 -22 -172 -90 -215 -176 l-25 -50 0 -1445 0 -1445 23
-45 c35 -72 75 -114 144 -151 l63 -34 978 -3 977 -2 25 24 c33 33 33 79 0 111
l-24 25 -951 0 c-1052 0 -993 -4 -1046 66 l-29 37 0 1418 c0 1416 0 1418 21
1445 11 15 33 37 48 48 l27 21 2018 0 2018 0 37 -29 c70 -53 66 6 66 -1046 l0
-951 25 -24 c32 -33 78 -33 111 0 l24 25 -2 977 -3 978 -34 63 c-37 69 -79
109 -151 144 l-45 23 -2025 2 c-1114 0 -2038 -2 -2055 -6z"/>
<path d="M585 4375 c-16 -15 -25 -36 -25 -55 0 -19 9 -40 25 -55 23 -24 31
-25 135 -25 104 0 112 1 135 25 16 15 25 36 25 55 0 19 -9 40 -25 55 -23 24
-31 25 -135 25 -104 0 -112 -1 -135 -25z"/>
<path d="M1065 4375 c-16 -15 -25 -36 -25 -55 0 -19 9 -40 25 -55 l24 -25 351
0 351 0 24 25 c16 15 25 36 25 55 0 19 -9 40 -25 55 l-24 25 -351 0 -351 0
-24 -25z"/>
<path d="M2882 4387 c-19 -6 -55 -30 -82 -54 -73 -66 -100 -167 -65 -249 8
-20 12 -42 7 -48 -4 -7 -63 -76 -131 -154 -114 -131 -125 -140 -148 -131 -131
50 -303 -81 -303 -231 0 -124 116 -240 240 -240 63 0 114 23 165 75 72 71 92
150 60 239 -8 22 -11 45 -7 51 4 7 63 75 131 153 114 131 125 140 148 131 31
-12 95 -12 126 0 22 9 34 -2 155 -140 l130 -150 -15 -46 c-18 -52 -13 -134 10
-180 57 -110 198 -162 307 -112 117 53 174 173 136 289 l-17 51 131 149 c123
140 132 149 156 140 65 -25 168 1 227 58 49 46 71 99 71 172 0 251 -337 332
-449 107 -29 -58 -34 -137 -11 -191 l14 -34 -130 -148 c-72 -82 -135 -147
-142 -145 -32 10 -108 12 -135 3 -29 -10 -31 -9 -161 139 l-130 149 16 50 c59
182 -120 356 -304 297z"/>
<path d="M585 3975 c-16 -15 -25 -36 -25 -55 0 -19 9 -40 25 -55 23 -24 31
-25 135 -25 104 0 112 1 135 25 16 15 25 36 25 55 0 19 -9 40 -25 55 -23 24
-31 25 -135 25 -104 0 -112 -1 -135 -25z"/>
<path d="M1065 3975 c-16 -15 -25 -36 -25 -55 0 -19 9 -40 25 -55 l24 -25 351
0 351 0 24 25 c16 15 25 36 25 55 0 19 -9 40 -25 55 l-24 25 -351 0 -351 0
-24 -25z"/>
<path d="M585 3575 c-16 -15 -25 -36 -25 -55 0 -19 9 -40 25 -55 23 -24 31
-25 135 -25 104 0 112 1 135 25 16 15 25 36 25 55 0 19 -9 40 -25 55 -23 24
-31 25 -135 25 -104 0 -112 -1 -135 -25z"/>
<path d="M1065 3575 c-16 -15 -25 -36 -25 -55 0 -19 9 -40 25 -55 l24 -25 351
0 351 0 24 25 c16 15 25 36 25 55 0 19 -9 40 -25 55 l-24 25 -351 0 -351 0
-24 -25z"/>
<path d="M1225 3175 l-25 -24 0 -631 0 -631 25 -24 c24 -25 26 -25 215 -25
189 0 191 0 215 25 l25 24 0 631 0 631 -25 24 c-24 25 -26 25 -215 25 -189 0
-191 0 -215 -25z"/>
<path d="M585 2855 l-25 -24 0 -471 0 -471 25 -24 c24 -25 26 -25 215 -25 189
0 191 0 215 25 l25 24 0 471 0 471 -25 24 c-24 25 -26 25 -215 25 -189 0 -191
0 -215 -25z"/>
<path d="M3555 2705 c-592 -109 -1019 -636 -992 -1225 14 -311 133 -576 357
-800 110 -110 212 -183 343 -245 275 -130 583 -149 877 -54 93 31 264 121 337
177 l62 48 -228 228 -227 227 -46 -26 c-163 -91 -358 -96 -528 -13 -88 43
-205 160 -248 248 -86 175 -78 374 23 546 62 107 209 215 336 248 l54 13 3
322 2 321 -27 -1 c-16 -1 -59 -7 -98 -14z"/>
<path d="M3842 2399 l3 -322 54 -14 c148 -37 283 -144 353 -278 33 -64 43 -93
62 -177 l6 -28 321 0 321 0 -6 58 c-24 211 -86 380 -200 551 -146 219 -366
388 -612 470 -81 27 -239 61 -285 61 -19 0 -19 -12 -17 -321z"/>
<path d="M1865 2615 l-25 -24 0 -351 0 -351 25 -24 c24 -25 26 -25 215 -25
189 0 191 0 215 25 l25 24 0 351 0 351 -25 24 c-24 25 -26 25 -215 25 -189 0
-191 0 -215 -25z"/>
<path d="M4296 1363 c-17 -56 -43 -109 -79 -163 l-16 -26 228 -228 228 -228
60 79 c109 145 197 345 223 510 6 37 13 78 16 91 l4 22 -323 0 -323 0 -18 -57z"/>
</g>
</svg>
