<?xml version="1.0" encoding="UTF-8" standalone="no"?>
<svg
   xmlns:svg="http://www.w3.org/2000/svg"
   xmlns="http://www.w3.org/2000/svg"
   xml:space="preserve"
   viewBox="0 0 24 24"
   height="24px"
   width="24px"
   id="operation"
   version="1.0">
   <g
     id="g4536"
     transform="matrix(1.0279575,0,0,1.0279575,-0.38797688,-0.37054963)"><path
       id="path827"
       d="M 4.8988318,21.254173 3.9246265,20.259874 2.921597,18.925034 C 2.4681883,18.724016 1.536623,16.287107 1.5325434,15.654043 1.5323864,15.626863 1.4960304,15.560343 1.4517904,15.506092 1.4075504,15.451812 1.3444944,15.235835 1.311664,15.026068 1.278834,14.816301 1.23484,14.616565 1.2139,14.582216 1.0030741,14.236314 0.94354245,11.652257 1.1240277,10.681199 1.4028299,9.1811887 1.7149405,8.0591877 1.8534055,8.0591877 c 0.039824,0 0.1016013,-0.133618 0.1372835,-0.2969178 C 2.0263702,7.5989611 2.107151,7.4103179 2.1702001,7.343065 2.2332502,7.2757938 2.3872272,7.0100771 2.5123718,6.7525336 2.6375165,6.4949901 2.7920603,6.2286693 2.8558027,6.1607207 2.9195446,6.0927173 3.092999,5.8596387 3.2412561,5.6426409 3.4983455,5.2663523 4.246348,4.4583472 4.8493953,3.905506 5.533135,3.2786847 6.574955,2.4053516 7.3515182,2.1962982 L 6.5971954,0.39358926 11.763403,1.9156946 9.3989952,6.1203242 8.3892506,4.092484 C 8.2888712,4.0830566 7.3342005,4.7176019 7.1698641,4.8535264 7.1042777,4.9078009 6.9847136,5.0076369 6.9041672,5.0754481 c -0.080547,0.067821 -0.1814446,0.123294 -0.2242168,0.123294 -0.082018,0 -1.6412562,1.5946206 -1.8929765,1.9359282 C 4.6154391,7.3672643 4.542806,7.4928922 4.0814296,8.3550529 3.48064,9.4777312 3.1801284,10.714735 3.1728963,12.094864 c -0.00681,1.298638 0.1550353,2.468873 0.4308349,3.11529 0.3993821,0.936067 0.8442055,1.827251 1.0424565,2.088528 0.1314002,0.173166 0.804091,1.292809 0.8323791,1.316848 l 0.5310636,0.646649 z"
       style="fill:currentColor;fill-opacity:1;stroke-width:0.91525459" /><path
       id="path819"
       d="m 21.542906,14.546512 -0.857164,-0.305695 0.06964,-0.403024 c 0.195147,-1.129397 0.01356,-3.434474 -0.338673,-4.2990965 -0.03315,-0.081367 -0.06409,-0.1767083 -0.06875,-0.2118536 -0.01526,-0.1150844 -0.790993,-1.708506 -0.891582,-1.8313788 -0.05397,-0.06599 -0.153319,-0.1861262 -0.220778,-0.2670897 -0.06746,-0.081 -0.122654,-0.1823828 -0.122654,-0.2253814 0,-0.082464 -1.586346,-1.6498106 -1.925887,-1.9028509 C 16.955683,4.9277172 16.830701,4.8547074 15.973014,4.3909295 15.338219,4.0476724 14.448524,3.7106757 14.064751,3.6681347 c -0.110762,-0.012356 -0.256579,-0.028007 -0.324038,-0.034872 -0.08993,-0.00915 -0.122654,-0.3020523 -0.122654,-1.0975733 0,-1.3162734 -0.137556,-1.2600036 1.766217,-0.7224013 0.519279,0.1466421 1.566618,0.5951168 1.668091,0.7142921 0.02698,0.031668 0.258042,0.1601788 0.513463,0.285532 0.819389,0.4021171 2.724599,1.9925459 2.724599,2.2744169 0,0.06123 0.04002,0.1112949 0.08892,0.1112949 0.115247,0 0.700463,0.8205899 1.104759,1.5490868 0.17446,0.3143533 0.363611,0.6041687 0.420337,0.644028 0.05672,0.039813 0.06928,0.073129 0.0279,0.073953 -0.04139,8.238e-4 0.02957,0.2123391 0.157678,0.4700291 0.202155,0.4066293 0.346844,0.831619 0.369224,1.0845402 0.0036,0.040912 0.0422,0.1188 0.08573,0.1730469 0.04353,0.054277 0.12871,0.3427538 0.189289,0.6411262 0.06058,0.2983738 0.135829,0.6534558 0.167223,0.7890778 0.09406,0.406327 0.112339,2.654632 0.02556,3.144476 -0.0444,0.250624 -0.105862,0.599931 -0.136577,0.776246 -0.06918,0.397028 -0.13986,0.397147 -1.24756,0.0018 z"
       style="fill:currentColor;fill-opacity:1;stroke-width:0.91525459" /><path
       id="path827-9"
       d="M 10.728776,23.48544 C 9.5279317,23.286015 7.8832067,22.831701 7.8832067,22.699428 l 0.88311,-1.969174 c 0,0.08548 0.693235,0.313612 1.111609,0.365818 0.1526603,0.01904 0.3161863,0.05858 0.3633933,0.08795 0.150657,0.09359 1.101294,0.189732 1.861179,0.188212 1.135496,-0.0018 2.022855,-0.142789 2.992753,-0.473983 0.40492,-0.138258 2.207771,-1.090609 2.207771,-1.166245 0,-0.0433 0.05656,-0.0788 0.125687,-0.0788 0.148554,0 1.934897,-1.82412 1.934897,-1.975814 0,-0.0572 0.10616,-0.219194 0.235903,-0.359851 l 0.235902,-0.255741 0.76986,0.277085 c 0.423421,0.152399 0.870882,0.313337 0.994355,0.357654 l 0.224496,0.08063 -0.260144,0.469526 c -0.14308,0.258248 -0.288259,0.491729 -0.32262,0.518858 -0.03436,0.02719 -0.171074,0.204659 -0.303807,0.394529 -0.435135,0.622455 -1.411524,1.676792 -1.552823,1.676792 -0.05659,0 -0.117609,0.03597 -0.135599,0.07981 -0.14073,0.34376 -2.65521,1.82639 -3.467016,2.044294 -0.435348,0.116841 -0.439509,0.118086 -0.466083,0.139622 -0.02445,0.01977 -0.09976,0.03982 -0.564208,0.15013 -0.931932,0.221262 -1.361305,0.272946 -2.404016,0.289348 -0.647613,0.01011 -1.376174,-0.01446 -1.619027,-0.05482 z"
       style="fill:currentColor;fill-opacity:1;stroke-width:0.91525459" /></g><path
     id="path2"
     d="M 12.743663,15.727519 C 12.2416,14.854368 11.804427,14.312654 11.358204,14.010753 10.999638,13.76816 10.588104,13.354079 10.443685,13.090576 10.259604,12.75471 9.5183445,12.219621 7.9642358,11.300751 6.7449585,10.579851 5.6794831,9.9642686 5.5965118,9.9327901 5.419698,9.865707 5.7079736,9.109037 6.1127462,8.5777659 L 6.3875096,8.2171347 8.7375055,9.5758856 c 2.0702305,1.1969924 2.4423855,1.3587504 3.1260625,1.3587504 0.689069,0 0.831458,0.06328 1.270164,0.564503 0.384775,0.439607 0.494358,0.713446 0.495279,1.23767 8.93e-4,0.504241 0.182164,0.990998 0.722384,1.939731 0.396659,0.696611 0.68618,1.358112 0.643378,1.470002 -0.06742,0.176247 -1.207924,0.856663 -1.435926,0.856663 -0.04492,0 -0.411748,-0.574059 -0.815184,-1.275686 z"
     style="fill:currentColor;fill-opacity:1;stroke-width:0.0785551" /></svg>