<?xml version="1.0" encoding="UTF-8" standalone="no"?>
<svg
   xmlns:svg="http://www.w3.org/2000/svg"
   xmlns="http://www.w3.org/2000/svg"
   width="24px"
   height="24px"
   viewBox="0 0 24 24">
  <g transform="translate(0,-1028.3622)">
    <g style="fill:currentColor;fill-opacity:1;stroke:currentColor;stroke-opacity:1;stroke-width:0px">
      <g transform="matrix(0.14894701,0.11169082,-0.10022937,0.17151992,17.627094,949.81645)">
        <path d="m 230,362.3622 10.05076,20 9.94924,0 -10.17703,-20 z" />
        <path d="M 248,362.3622 258.3033,382.23593 268,382.3622 257.94924,362.23593 Z"/>
        <path d="m 266,362.3622 10.3033,20 4.6967,0 10,-10 -10,-10 z" />
        <path d="M 232,382.3622 221.94924,362.48847 217,362.3622 l -5,10 10,5 -5,5 z" />
      </g>
      <g transform="matrix(1.0160376,0,0,1.0306742,-0.45683257,-32.443312)">
        <path d="m 11.63092,1041.7583 -0.398647,-1.0022 -1.8492104,0.9216 -1.2808141,-1.3632 -1.4505645,1.9239 4.490555,0.1293 z" />
        <path d="m 5.8508626,1043.2618 -5.0236924,6.1638 3.2608141,2.3366 6.2857797,-8.3366 z" />
      </g>
      <path d="m 14.458585,1030.2304 -1.0751,-0.5882 -1.234925,2.3045 1.075103,0.5882 1.234922,-2.3045 z" />
      <path d="m 5.824225,1031.0485 -0.8992661,0.9146 3.2607569,2.4212 0.899266,-0.9146 -3.2607568,-2.4212 z" />
      <path d="m 5.65402,1036.9679 -0.019648,1.1374 -3.5335063,0.4801 0.020139,-1.1379 3.5330162,-0.4796 z" />
    </g>
  </g>
</svg>
