<?xml version="1.0" encoding="UTF-8" standalone="no"?>
<svg
	xmlns="http://www.w3.org/2000/svg" 
	xml:space="preserve"
	viewBox="0 0 24 24"
	height="24px"
	width="24px"
	id="setup"
	version="1.0">
	 
	<g transform="translate(0,-1028.362)" id="layer1">
		<path
			style="fill:currentColor;fill-opacity:1"
			d="M 1.520655,1039.9036 C 0.172699,1039.7417 0,1039.6408 0,1039.0145 c 0,-0.5994 0.324254,-1.0529 0.81203,-1.1351 0.379437,-0.065 0.917224,-1.0086 1.453864,-2.5534 0.650856,-1.8734 4.041416,-6.0631 4.906733,-6.0631 0.45367,0 0.524086,0.2719 0.687122,2.6542 0.0694,1.0139 0.22882,1.9836 0.354284,2.1548 0.578893,0.7904 1.01163,-0.6208 1.267468,-4.1334 l 0.114807,-1.5763 2.395361,0 2.395362,0 0.128658,2.0856 c 0.141192,2.289 0.511131,3.8591 0.909224,3.8591 0.410682,0 0.491248,-0.2948 0.644125,-2.3572 0.172685,-2.3295 0.267767,-2.6868 0.715052,-2.6868 0.504234,0 2.535123,2.1219 3.691689,3.8572 0.569288,0.8541 1.200011,2.0857 1.435103,2.8023 0.420026,1.28 0.874559,1.9874 1.277089,1.9874 0.353547,0 0.812029,0.6274 0.812029,1.1112 0,0.9407 -0.112859,0.9506 -11.187969,0.9839 -5.60752,0.017 -10.688639,-0.028 -11.291376,-0.1012 z"
			id="path1" />
		<path
			style="fill:currentColor;fill-opacity:1"
			d="m 10.51128,1052.2949 c -0.372661,-0.1111 -0.585211,-0.4856 -0.59135,-1.0417 -0.01019,-0.9236 -0.184573,-1.1137 -1.478662,-1.6132 -0.991345,-0.3825 -1.240332,-0.3405 -1.995145,0.3364 -0.493393,0.4425 -0.768512,0.4257 -1.381419,-0.085 -0.710876,-0.5917 -1.798244,-1.73 -1.895991,-1.9847 -0.117722,-0.3069 -0.04491,-0.4879 0.417688,-1.0383 0.466582,-0.5551 0.533274,-0.7584 0.397043,-1.21 -0.178393,-0.5914 -0.786849,-1.7845 -0.962018,-1.8863 -0.09325,-0.054 -0.470617,-0.1234 -0.838588,-0.1539 -0.894722,-0.074 -1.106388,-0.2478 -1.214999,-0.9981 -0.04175,-0.2884 -0.07665,-0.715 -0.07755,-0.9479 l -0.0016,-0.4235 2.635032,0 2.635032,0 0.05644,0.5676 c 0.206624,2.0783 1.380143,3.8201 3.176411,4.7147 1.995893,0.994 4.454898,0.751 6.164948,-0.6092 1.317338,-1.0478 2.035687,-2.3841 2.219298,-4.1286 l 0.05732,-0.5445 2.63907,0 2.639071,0 -0.0016,0.3832 c -9.02e-4,0.2108 -0.0358,0.6192 -0.07755,0.9076 -0.06257,0.4322 -0.119742,0.5634 -0.325254,0.7462 -0.213601,0.1901 -0.319529,0.2219 -0.739078,0.2219 -0.533264,0 -0.933852,0.1309 -1.155218,0.3775 -0.25728,0.2866 -0.79452,1.681 -0.79452,2.0622 0,0.3153 0.0509,0.4139 0.447709,0.868 0.587347,0.6723 0.594359,0.8658 0.05464,1.5086 -0.508474,0.6054 -1.790934,1.7963 -2.034277,1.8889 -0.290501,0.1107 -0.536544,0.011 -1.032758,-0.4197 -0.605672,-0.5253 -0.746959,-0.551 -1.547842,-0.2816 -1.41817,0.4773 -1.748015,0.7951 -1.748256,1.6846 -1.61e-4,0.5499 -0.143749,0.8688 -0.46208,1.0261 -0.280368,0.1386 -2.771884,0.195 -3.183865,0.072 z"
			id="path2" />
	</g>
</svg>