<?xml version="1.0" encoding="UTF-8" standalone="no"?>
<svg
	xmlns="http://www.w3.org/2000/svg" 
	xmlns:xlink="http://www.w3.org/1999/xlink" 
	xml:space="preserve"
	viewBox="0 0 24 24"
	height="24px"
	width="24px"
	id="operation"
	version="1.0">
  
  <path
     style="fill:currentColor;fill-opacity:1"
     d="m 10.444403,23.937789 c -1.3120323,-0.21789 -3.1090465,-0.71427 -3.1090465,-0.85879 0,-0.0429 -0.1452272,-0.11005 -0.3227276,-0.14924 -0.1775013,-0.0392 -0.3825372,-0.1279 -0.4556362,-0.19715 -0.0731,-0.0693 -0.3619437,-0.23836 -0.6418754,-0.3758 -0.2799326,-0.13745 -0.5693955,-0.30878 -0.6432511,-0.38074 -0.073856,-0.072 -0.3031376,-0.24935 -0.509514,-0.3942 -0.6626224,-0.46507 -1.8225447,-1.55486 -1.8225447,-1.71235 0,-0.0554 -0.036462,-0.11686 -0.081027,-0.13661 -0.4953908,-0.21963 -2.29098932,-3.49329 -2.29544663,-4.18497 -1.7153e-4,-0.0297 -0.0398944,-0.10238 -0.08823,-0.16165 -0.0483356,-0.0593 -0.11723036,-0.29528 -0.15310062,-0.52447 -0.0358702,-0.22919 -0.0839374,-0.44742 -0.1068157,-0.48495 -0.23034735,-0.37793 -0.29539118,-3.20125 -0.0981944,-4.26222 0.30461712,-1.6388998 0.64562682,-2.8647898 0.79691261,-2.8647898 0.0435112,0 0.11100884,-0.14599 0.14999494,-0.32441 0.038985,-0.17843 0.1272454,-0.38454 0.1961324,-0.45802 0.068888,-0.0735 0.2371221,-0.36382 0.3738541,-0.64521 0.1367321,-0.28139 0.3055855,-0.57237 0.3752298,-0.64661 0.069644,-0.0743 0.259159,-0.32896 0.4211434,-0.56605 0.280894,-0.41113 1.0981556,-1.29395 1.7570403,-1.89798 0.7470486,-0.68486 2.9964436,-1.97239001 3.8449106,-2.20080001 0.3784315,-0.10186 0.3817833,-0.10295 0.5896465,-0.19048 0.307336,-0.12943 1.4955462,-0.3681 1.5516672,-0.31169 0.03105,0.0313 0.05646,0.57441 0.05646,1.20709001 l 0,1.15032 -0.6164494,0.13692 c -0.3390465,0.0753 -0.6646927,0.17589 -0.7236575,0.22352 -0.058965,0.0477 -0.1471964,0.0829 -0.1960706,0.0783 -0.1096735,-0.0103 -1.7916281,0.79411 -1.9711809,0.94262 -0.071659,0.0593 -0.2022939,0.16838 -0.2902983,0.24247 -0.088005,0.0741 -0.1982449,0.13471 -0.2449775,0.13471 -0.089613,0 -1.7932236,1.74227 -2.0682512,2.11518 -0.1874176,0.25413 -0.2667759,0.39139 -0.7708721,1.33338 -0.656418,1.22663 -0.9847547,2.5781698 -0.9926564,4.0860898 -0.00744,1.41888 0.1693903,2.69747 0.4707268,3.40374 0.4363618,1.02274 0.9223723,1.99644 1.1389798,2.28191 0.1435668,0.1892 0.2610304,0.37718 0.2610304,0.41774 0,0.1493 2.0402209,2.09599 2.1966905,2.09599 0.089043,0 0.1618968,0.0375 0.1618968,0.0832 0,0.0458 0.1809148,0.17869 0.4020319,0.29533 0.221118,0.11663 0.4261539,0.24187 0.4556362,0.2783 0.029482,0.0364 0.2345191,0.12553 0.4556362,0.19799 0.221118,0.0725 0.4020319,0.16879 0.4020319,0.21409 0,0.0934 0.7574235,0.34265 1.2145349,0.39969 0.166795,0.0208 0.3454627,0.064 0.3970403,0.0961 0.1646072,0.10226 1.2032702,0.2073 2.0335142,0.20564 1.240634,-0.002 2.210156,-0.15601 3.269859,-0.51787 0.442411,-0.15106 2.412192,-1.19159 2.412192,-1.27423 0,-0.0473 0.0618,-0.0861 0.137325,-0.0861 0.162309,0 2.114054,-1.99302 2.114054,-2.15876 0,-0.0625 0.115986,-0.23949 0.257745,-0.39317 l 0.257745,-0.27942 0.841142,0.30274 c 0.462628,0.16651 0.95152,0.34235 1.086426,0.39077 l 0.245282,0.0881 -0.284232,0.513 c -0.156328,0.28216 -0.314949,0.53726 -0.352492,0.5669 -0.03754,0.0297 -0.186914,0.22361 -0.331937,0.43106 -0.475425,0.68009 -1.54222,1.83205 -1.696602,1.83205 -0.06183,0 -0.128498,0.0393 -0.148155,0.0872 -0.15376,0.37559 -2.901061,1.9955 -3.788033,2.23358 -0.475659,0.12766 -0.480205,0.12902 -0.50924,0.15255 -0.02672,0.0216 -0.109004,0.0435 -0.616449,0.16403 -1.018221,0.24175 -1.487351,0.29822 -2.626609,0.31614 -0.707576,0.0111 -1.503599,-0.0158 -1.76894,-0.0599 z m -2.4151047,-7.74798 c -0.038045,-0.0619 0.0136,-0.23949 0.1147663,-0.3947 0.3493574,-0.53597 5.9785394,-8.2765498 6.1947684,-8.5183098 0.173347,-0.19382 0.331451,-0.24248 0.787828,-0.24248 0.440537,0 0.570959,0.0376 0.570959,0.16457 0,0.14423 -5.21586,7.4322598 -6.1873136,8.6454198 -0.3409376,0.42575 -0.4035517,0.458 -0.8892989,0.458 -0.2873948,0 -0.5536647,-0.0507 -0.5917092,-0.1125 z m 5.4190687,-0.23774 c -0.588171,-0.30207 -0.865664,-0.81504 -0.939227,-1.73627 -0.06507,-0.81479 0.173506,-1.74966 0.533178,-2.08931 0.922052,-0.87075 2.709198,-0.69195 3.222027,0.32233 0.421294,0.83325 0.342758,2.31282 -0.160469,3.02323 -0.497036,0.70166 -1.774354,0.93255 -2.655509,0.48002 z m 1.546318,-0.96695 c 0.117517,-0.16864 0.166892,-0.49632 0.166892,-1.10757 0,-1.01595 -0.158123,-1.3471 -0.643251,-1.3471 -0.485128,0 -0.643251,0.33115 -0.643251,1.3471 0,1.01595 0.158123,1.34709 0.643251,1.34709 0.19826,0 0.36944,-0.086 0.476359,-0.23952 z m 7.431813,-0.64726 -0.93653,-0.334 0.07609,-0.44034 c 0.213216,-1.23397 0.01481,-3.7524798 -0.370032,-4.6971598 -0.03622,-0.0889 -0.07002,-0.19307 -0.07511,-0.23147 -0.01667,-0.12574 -0.864233,-1.8667 -0.974136,-2.00095 -0.05897,-0.0721 -0.167514,-0.20336 -0.241219,-0.29182 -0.07371,-0.0885 -0.134011,-0.19927 -0.134011,-0.24625 0,-0.0901 -1.733229,-1.80257 -2.10421,-2.07904 -0.252806,-0.18839 -0.38936,-0.26816 -1.326462,-0.77488 -0.693572,-0.37504 -1.665645,-0.74324 -2.084954,-0.78972 -0.121016,-0.0135 -0.280335,-0.0306 -0.35404,-0.0381 -0.09826,-0.01 -0.134011,-0.33002 -0.134011,-1.1992 0,-1.43815001 -0.150292,-1.37667001 1.929754,-0.78929001 0.567361,0.16022 1.711675,0.65022001 1.822544,0.78043001 0.02948,0.0346 0.281935,0.17501 0.561005,0.31197 0.895258,0.43935 2.976876,2.17704 2.976876,2.48501 0,0.0669 0.04372,0.1216 0.09715,0.1216 0.125918,0 0.765319,0.89657 1.20705,1.69252 0.190613,0.34346 0.397279,0.66011 0.459257,0.70366 0.06198,0.0435 0.07569,0.0799 0.03048,0.0808 -0.04522,9e-4 0.03231,0.232 0.172278,0.51355 0.220872,0.44428 0.378959,0.90862 0.403411,1.18496 0.004,0.0447 0.04611,0.1298 0.09367,0.18907 0.04756,0.0593 0.140627,0.37449 0.206815,0.70049 0.06619,0.326 0.148406,0.71396 0.182707,0.8621398 0.102768,0.44395 0.122741,2.90043 0.02793,3.43563 -0.04851,0.27383 -0.115659,0.65548 -0.149223,0.84812 -0.07559,0.43379 -0.152809,0.43392 -1.363074,0.002 z M 8.1951508,11.533609 c -0.5881699,-0.30207 -0.8656642,-0.81504 -0.9392272,-1.7362698 -0.065065,-0.8148 0.1735062,-1.74966 0.5331788,-2.08931 0.9220512,-0.87075 2.7091976,-0.69195 3.2220256,0.32234 0.421293,0.83324 0.342758,2.3128198 -0.16047,3.0232098 -0.497035,0.70166 -1.7743531,0.93256 -2.6555072,0.48003 z m 1.5463178,-0.96694 c 0.1175168,-0.16866 0.1668919,-0.49633 0.1668919,-1.1075798 0,-1.01595 -0.1581231,-1.34709 -0.6432511,-1.34709 -0.485128,0 -0.6432511,0.33114 -0.6432511,1.34709 0,1.0159398 0.1581231,1.3470898 0.6432511,1.3470898 0.1982611,0 0.3694397,-0.086 0.4763592,-0.23951 z"
     id="path1" />
     
     </svg>